<?xml version="1.0" standalone="no"?>
<!DOCTYPE svg PUBLIC "-//W3C//DTD SVG 20010904//EN"
 "http://www.w3.org/TR/2001/REC-SVG-20010904/DTD/svg10.dtd">
<svg version="1.0" xmlns="http://www.w3.org/2000/svg"
 width="672.000000pt" height="672.000000pt" viewBox="0 0 672.000000 672.000000"
 preserveAspectRatio="xMidYMid meet">
<metadata>
Created by potrace 1.10, written by Peter Selinger 2001-2011
</metadata>
<g transform="translate(0.000000,672.000000) scale(0.100000,-0.100000)"
fill="#ffffff" stroke="none">
<path d="M3320 6399 c7 -11 14 -19 16 -16 7 7 -7 37 -17 37 -6 0 -5 -9 1 -21z"/>
<path d="M3347 6366 c-4 -10 -5 -21 -2 -24 9 -9 17 6 13 25 -3 17 -4 17 -11
-1z"/>
<path d="M3768 6109 c-19 -11 -24 -54 -8 -64 6 -3 10 4 10 17 0 27 9 43 30 51
13 5 13 5 0 6 -8 0 -23 -4 -32 -10z"/>
<path d="M3839 6094 c12 -15 21 -33 21 -41 0 -8 5 -11 10 -8 27 17 -2 74 -38
75 -9 0 -7 -8 7 -26z"/>
<path d="M4260 6078 c-34 -36 -37 -68 -9 -89 44 -33 71 -34 96 -3 22 28 23 55
1 97 -13 25 -63 22 -88 -5z m84 -36 c2 -4 1 -14 -4 -22 -7 -11 -13 -12 -36 -1
-22 10 -25 14 -13 22 17 11 46 12 53 1z"/>
<path d="M3822 6018 c6 -18 28 -21 28 -4 0 9 -7 16 -16 16 -9 0 -14 -5 -12
-12z"/>
<path d="M2391 5895 c0 -24 21 -55 38 -55 18 0 13 17 -14 47 -22 25 -24 26
-24 8z"/>
<path d="M4162 5870 c-12 -20 -9 -40 7 -40 19 0 42 27 35 43 -8 23 -26 22 -42
-3z"/>
<path d="M3800 5810 c0 -18 4 -29 10 -25 6 3 10 15 10 25 0 10 -4 22 -10 25
-6 4 -10 -7 -10 -25z"/>
<path d="M4081 5794 c-18 -19 -31 -37 -28 -40 7 -7 57 26 57 37 0 17 29 9 40
-11 6 -11 15 -18 20 -15 13 8 1 35 -16 35 -8 0 -14 7 -14 15 0 24 -22 16 -59
-21z"/>
<path d="M4078 5654 c-10 -21 -9 -27 3 -35 24 -15 29 -10 29 26 0 41 -16 46
-32 9z"/>
<path d="M2642 5375 c-7 -8 -25 -16 -40 -16 -19 -1 -15 -3 14 -8 46 -8 124 -2
124 8 0 10 -47 31 -68 31 -9 -1 -23 -7 -30 -15z"/>
<path d="M2344 5365 c-13 -10 -45 -14 -101 -15 -45 0 -84 -4 -87 -9 -3 -5 -34
-12 -68 -16 -35 -4 -72 -12 -83 -18 -10 -5 -46 -14 -80 -18 -93 -12 -179 -30
-189 -40 -6 -5 -20 -9 -33 -9 -29 0 -232 -65 -298 -96 -76 -35 -173 -74 -185
-74 -17 0 -54 -39 -46 -47 4 -5 13 -1 19 8 17 22 44 30 69 19 l23 -9 -24 0
c-26 -1 -81 -51 -56 -51 8 0 15 5 15 10 0 6 13 10 29 10 16 0 42 7 57 15 16 8
37 15 46 15 9 0 20 5 23 10 3 6 15 10 25 10 11 0 41 7 67 15 26 8 80 25 118
36 39 12 79 25 90 30 11 4 36 11 55 15 19 3 40 9 45 13 12 7 97 28 185 44 36
7 75 18 87 25 12 6 39 12 60 12 22 0 43 4 49 10 5 5 46 13 89 16 44 4 92 13
107 20 15 8 58 14 95 14 78 0 88 5 91 43 l2 27 -88 0 c-62 0 -94 -4 -108 -15z
m156 -19 c0 -3 -2 -6 -5 -6 -3 0 -21 0 -41 0 -19 0 -33 4 -30 8 6 10 76 8 76
-2z"/>
<path d="M4075 5369 c-10 -15 1 -22 24 -14 12 3 19 11 16 16 -8 12 -32 11 -40
-2z"/>
<path d="M4203 5345 c0 -8 4 -15 7 -15 4 0 13 7 20 15 10 12 9 15 -7 15 -11 0
-20 -7 -20 -15z"/>
<path d="M4301 5311 c-28 -18 1 -31 73 -31 40 0 94 -6 119 -14 27 -8 49 -10
53 -5 5 9 -4 14 -41 22 -11 3 2 5 28 6 31 1 54 -4 63 -14 10 -9 34 -15 63 -15
26 0 63 -7 81 -17 32 -16 33 -17 11 -25 -33 -12 -16 -28 29 -28 37 0 82 -13
157 -46 17 -8 47 -14 66 -14 20 0 37 -5 39 -11 2 -5 19 -14 38 -19 47 -11 99
-29 133 -46 16 -8 35 -14 43 -14 13 0 115 -43 177 -75 16 -8 37 -15 47 -15 9
0 23 -7 30 -15 7 -8 19 -15 27 -15 8 0 27 -6 41 -14 15 -8 62 -31 105 -51 42
-20 77 -40 77 -45 0 -6 8 -10 19 -10 10 0 24 -7 31 -15 7 -8 18 -15 26 -15 7
0 19 -7 27 -15 8 -8 34 -24 58 -36 24 -12 67 -39 94 -59 28 -20 68 -47 90 -60
22 -13 42 -27 45 -30 3 -3 19 -16 37 -28 39 -28 48 -35 194 -161 64 -55 141
-131 170 -168 30 -37 57 -69 61 -71 3 -2 23 -30 44 -63 52 -82 64 -78 64 21 0
73 -2 80 -20 80 -11 0 -20 7 -20 15 0 22 -264 283 -351 348 -42 31 -83 62 -90
69 -18 17 -88 69 -114 85 -287 173 -266 160 -292 172 -12 6 -40 22 -62 36 -22
14 -46 25 -53 25 -7 0 -53 20 -103 44 -100 49 -234 106 -250 106 -5 0 -37 14
-70 30 -34 17 -76 30 -96 30 -24 0 -39 5 -43 15 -3 9 -18 15 -39 15 -18 0 -42
7 -53 15 -10 8 -32 15 -47 15 -15 0 -39 8 -53 17 -21 14 -31 15 -56 5 -35 -13
-64 -6 -48 13 16 19 1 25 -71 25 -38 0 -69 5 -71 10 -5 16 -126 43 -183 41
-122 -5 -162 -5 -190 2 -16 4 -36 3 -44 -2z m837 -178 c-10 -2 -26 -2 -35 0
-10 3 -2 5 17 5 19 0 27 -2 18 -5z"/>
<path d="M4615 5240 c-3 -5 0 -13 9 -16 21 -8 71 -1 71 11 0 14 -72 19 -80 5z"/>
<path d="M3089 5176 c-2 -2 -94 -9 -204 -16 -171 -9 -335 -25 -475 -44 -19 -3
-71 -12 -115 -21 -44 -8 -109 -19 -145 -25 -36 -5 -79 -16 -95 -24 -17 -9 -46
-16 -65 -16 -20 0 -41 -5 -46 -10 -14 -14 -59 -16 -107 -6 -27 5 -37 4 -32 -3
3 -6 13 -11 21 -11 8 0 13 -4 9 -9 -9 -16 -96 -25 -117 -12 -22 14 -48 14 -48
1 0 -5 11 -10 25 -10 42 0 28 -18 -20 -26 -25 -3 -48 -10 -51 -15 -3 -5 -18
-9 -34 -9 -16 0 -35 -7 -44 -15 -8 -8 -35 -18 -60 -21 -25 -4 -46 -11 -46 -17
0 -6 -18 -8 -45 -5 -25 3 -45 2 -45 -3 0 -5 5 -9 10 -9 6 0 10 -4 10 -10 0 -5
-17 -12 -37 -16 -21 -4 -41 -11 -44 -17 -4 -5 -25 -10 -48 -11 -23 0 -43 -6
-46 -14 -3 -9 -15 -11 -40 -6 -23 4 -35 2 -35 -5 0 -6 7 -11 15 -11 26 0 16
-14 -25 -33 -27 -13 -50 -16 -74 -11 -24 4 -36 2 -36 -5 0 -6 7 -11 15 -11 8
0 15 -4 15 -10 0 -5 -9 -10 -19 -10 -11 0 -23 5 -26 10 -8 13 -16 12 -35 0
-13 -9 -12 -13 5 -26 19 -15 18 -16 -22 -10 -27 4 -43 2 -43 -4 0 -5 7 -10 15
-10 27 0 16 -16 -22 -32 -22 -9 -52 -14 -71 -11 -31 5 -44 -8 -22 -22 15 -9
-61 -46 -81 -40 -10 3 -21 0 -26 -8 -4 -7 -21 -19 -38 -25 -16 -7 -46 -26 -65
-42 -32 -27 -33 -29 -12 -30 12 0 22 -5 22 -10 0 -16 -30 -24 -43 -11 -14 14
-37 15 -37 1 0 -5 7 -10 15 -10 20 0 19 -19 -1 -27 -9 -3 -20 0 -25 8 -8 12
-11 12 -22 -1 -6 -9 -34 -31 -61 -50 -78 -55 -238 -223 -292 -305 -10 -16 -32
-43 -47 -60 -15 -16 -35 -47 -44 -67 -9 -21 -20 -38 -25 -38 -12 0 -9 -38 3
-42 9 -3 9 -9 0 -25 -8 -16 -11 -191 -11 -622 0 -540 4 -641 23 -588 2 6 8 8
13 4 5 -4 2 -12 -6 -17 -13 -8 -11 -16 9 -52 35 -61 91 -138 102 -138 5 0 9
-9 9 -20 0 -11 7 -20 15 -20 8 0 15 -6 15 -12 0 -17 104 -124 193 -198 39 -33
88 -75 107 -93 19 -18 49 -42 65 -52 17 -11 32 -22 35 -25 14 -14 100 -70 108
-70 5 0 15 -7 22 -15 7 -8 20 -15 30 -15 10 0 20 -7 23 -15 3 -8 25 -24 49
-35 24 -12 59 -31 79 -43 78 -47 152 -87 173 -93 11 -4 30 -13 41 -20 11 -8
26 -14 33 -14 7 0 20 -7 28 -15 9 -8 23 -15 33 -15 10 0 39 -11 65 -25 26 -14
57 -25 70 -25 12 0 31 -7 42 -15 10 -8 26 -15 35 -15 9 0 22 -6 28 -14 6 -8
32 -17 58 -21 25 -4 53 -10 62 -15 33 -17 98 -40 136 -49 22 -5 67 -17 100
-26 33 -9 85 -21 115 -27 30 -6 59 -14 64 -19 6 -5 28 -9 50 -9 23 0 55 -7 71
-16 19 -10 54 -15 97 -15 49 0 67 -3 72 -14 4 -11 22 -15 64 -15 33 0 63 -5
71 -13 9 -9 61 -12 191 -12 98 0 176 -3 173 -7 -2 -5 -14 -8 -26 -9 -21 0 -21
-1 3 -11 16 -6 105 -8 255 -3 164 4 226 3 215 -5 -8 -6 -28 -10 -45 -9 -44 2
-59 0 -53 -7 10 -9 230 -15 288 -8 30 4 49 9 43 11 -45 16 11 23 190 25 111 1
183 3 159 5 -23 2 -40 8 -37 14 4 5 87 10 188 10 100 1 172 4 160 6 -47 9 -20
20 58 26 51 3 85 10 90 18 6 10 34 13 99 13 50 0 86 2 80 6 -15 9 12 20 48 20
15 0 39 7 55 15 15 8 55 17 89 21 34 4 73 13 87 20 14 8 41 14 59 14 17 0 32
4 32 9 0 5 20 12 45 15 24 4 47 11 50 16 3 5 26 12 50 16 25 3 48 10 51 15 3
5 20 9 38 9 19 0 39 6 45 14 6 7 41 23 76 35 36 12 77 29 93 37 15 7 35 14 44
14 9 0 20 5 24 11 4 7 24 9 50 6 24 -2 44 -1 44 4 0 5 -4 9 -10 9 -22 0 -8 18
18 24 33 8 92 36 110 53 7 7 22 13 31 13 10 0 24 7 31 15 7 8 16 15 21 15 5 0
28 12 52 27 23 15 71 43 107 61 36 19 69 40 73 48 4 8 12 14 18 14 12 0 105
64 140 96 14 13 29 24 33 24 36 0 436 400 436 435 0 3 18 30 40 59 48 63 140
241 140 270 1 12 9 39 20 61 11 22 19 50 20 63 0 13 6 22 15 22 13 0 15 48 15
370 0 346 -1 370 -17 370 -12 0 -26 18 -41 53 -12 28 -22 56 -22 60 0 23 -198
303 -227 320 -7 4 -13 12 -13 17 0 5 -35 45 -79 90 -67 71 -82 81 -102 75 -17
-4 -20 -3 -10 3 19 13 4 34 -20 27 -13 -4 -19 -2 -19 8 0 17 -66 87 -83 87 -7
0 -30 16 -52 35 -62 54 -63 55 -79 55 -8 0 -19 6 -23 14 -4 7 -27 24 -49 37
-123 71 -144 85 -144 92 0 4 -7 7 -15 7 -8 0 -32 9 -52 20 -28 15 -40 17 -50
8 -7 -6 -17 -7 -21 -3 -4 4 -1 10 6 12 27 10 -2 23 -39 17 -26 -4 -39 -3 -39
5 0 6 7 11 16 11 8 0 12 5 9 10 -4 6 -23 7 -46 4 -26 -4 -39 -3 -39 5 0 6 7
11 15 11 8 0 15 5 15 10 0 6 -16 10 -36 10 -19 0 -42 7 -51 15 -11 11 -25 14
-51 9 -34 -7 -36 -6 -23 10 21 25 6 31 -38 16 -40 -13 -71 -9 -71 10 0 5 9 10
20 10 11 0 20 5 20 10 0 14 -37 13 -42 -1 -2 -7 -14 -8 -38 -1 -32 10 -33 11
-12 17 12 4 22 11 22 16 0 13 -44 11 -57 -2 -11 -11 -63 -2 -63 12 0 5 5 9 10
9 6 0 10 3 10 8 0 4 -21 7 -47 8 -54 0 -150 20 -167 33 -6 5 -31 12 -56 16
-25 4 -47 11 -50 14 -3 4 -30 12 -60 18 -30 7 -86 19 -125 28 -38 9 -101 20
-140 25 -38 4 -83 13 -100 18 -44 15 -156 33 -267 42 -53 4 -112 13 -130 18
-18 6 -87 13 -153 16 -66 4 -160 10 -210 15 -90 10 -498 15 -506 7z m2631
-546 c12 -8 11 -10 -7 -10 -13 0 -23 5 -23 10 0 13 11 13 30 0z m-3264 -405
c72 -19 163 -63 203 -99 69 -62 111 -112 120 -141 6 -16 21 -61 35 -100 24
-64 26 -84 26 -228 0 -114 -4 -166 -14 -185 -7 -15 -16 -44 -20 -66 -8 -43
-25 -77 -43 -89 -7 -4 -13 -14 -13 -20 0 -29 -160 -177 -205 -190 -11 -3 -45
-15 -75 -27 -75 -29 -318 -41 -371 -18 -18 9 -62 23 -96 33 -34 10 -64 24 -67
31 -3 8 -11 14 -18 14 -16 0 -128 110 -128 126 0 6 -7 17 -15 24 -8 7 -15 20
-15 30 0 10 -7 23 -15 30 -8 7 -15 23 -15 37 0 13 -8 38 -17 56 -26 49 -24
331 2 407 11 30 25 62 32 71 7 8 13 20 13 26 0 5 14 29 30 51 17 23 30 45 30
49 0 12 116 105 158 126 20 11 46 24 57 30 19 10 36 14 155 37 56 10 198 2
266 -15z m2097 13 c16 -13 45 -81 54 -130 3 -15 11 -33 19 -39 8 -6 14 -19 14
-28 0 -10 19 -60 41 -112 23 -52 49 -121 59 -154 9 -33 31 -88 49 -122 17 -34
31 -69 31 -77 0 -8 6 -27 14 -43 26 -52 76 -175 76 -188 0 -8 6 -26 14 -42 8
-15 26 -55 39 -88 22 -55 27 -61 63 -68 59 -13 89 -30 89 -52 0 -19 -9 -20
-240 -21 -263 -2 -285 0 -285 21 0 18 39 45 66 45 12 0 31 8 43 18 l21 17 -29
80 c-16 44 -41 109 -54 145 l-24 65 -174 0 -174 0 -11 -33 c-5 -17 -15 -37
-22 -44 -7 -7 -12 -24 -12 -38 0 -14 -7 -35 -15 -46 -8 -10 -15 -26 -15 -34 0
-8 -7 -28 -15 -44 -31 -59 -16 -86 45 -86 33 0 62 -25 58 -49 -3 -14 -26 -16
-179 -19 -153 -3 -177 -1 -182 13 -9 22 27 55 61 55 45 0 85 32 105 86 10 27
25 64 33 82 8 18 14 41 14 51 0 10 7 24 15 31 8 7 15 20 15 29 0 10 7 26 15
37 8 10 15 25 15 33 0 8 14 43 30 78 17 34 30 67 30 72 0 5 14 36 30 69 17 34
30 67 30 74 0 7 7 22 15 32 8 11 15 30 15 42 0 12 7 27 15 34 8 7 15 19 15 27
0 8 6 27 14 41 8 15 21 47 31 72 9 25 23 59 30 75 16 38 42 105 49 128 6 20
35 22 59 5z m-3291 -35 c6 -7 20 -13 30 -13 27 0 87 -33 131 -72 32 -28 39
-43 52 -106 30 -144 -19 -249 -153 -330 -29 -18 -63 -32 -75 -32 -13 0 -27 -3
-31 -7 -4 -4 -23 -6 -43 -4 -23 2 -33 -1 -29 -8 4 -6 18 -11 30 -11 13 0 29
-7 36 -15 7 -8 18 -15 24 -15 13 0 106 -99 106 -113 0 -5 14 -26 30 -47 17
-21 30 -43 30 -49 0 -6 14 -30 30 -53 17 -22 30 -46 31 -52 0 -6 19 -38 42
-71 36 -51 49 -62 85 -70 47 -12 62 -27 55 -55 -3 -12 -18 -20 -47 -24 -64
-10 -212 -9 -228 0 -31 19 -76 61 -89 86 -13 24 -59 102 -136 233 -19 33 -45
78 -57 100 -64 117 -111 164 -139 136 -16 -16 -19 -411 -3 -443 8 -16 26 -25
66 -32 49 -10 55 -14 55 -36 l0 -25 -250 0 -250 0 0 25 c0 21 6 26 40 33 22 5
51 14 65 21 l25 12 2 476 c2 380 0 478 -10 487 -8 6 -38 17 -67 24 -55 14 -67
25 -56 53 5 14 46 15 346 12 254 -2 342 -6 352 -15z m2123 -13 c0 -20 -6 -26
-35 -30 -42 -7 -80 -27 -80 -41 0 -5 11 -27 25 -47 14 -20 25 -40 25 -44 0 -3
19 -35 42 -70 24 -35 51 -79 61 -98 11 -19 32 -54 48 -78 16 -24 29 -49 29
-56 0 -18 37 -49 49 -41 6 3 11 12 11 20 0 8 14 37 30 65 17 28 30 57 30 65 0
8 4 16 9 19 5 3 19 25 31 48 12 24 35 62 51 86 16 24 29 48 29 53 0 6 9 22 20
36 11 14 20 29 20 34 0 16 -32 39 -69 49 -39 10 -59 36 -43 52 5 5 87 7 183 6
171 -3 174 -3 177 -25 3 -17 -3 -24 -25 -28 -15 -4 -48 -15 -73 -25 -36 -15
-48 -26 -60 -57 -8 -21 -26 -50 -39 -65 -22 -25 -43 -61 -107 -183 -14 -27
-31 -59 -37 -70 -7 -11 -33 -57 -59 -101 l-47 -81 -4 -194 c-3 -118 -1 -202 5
-215 11 -23 35 -34 76 -34 27 0 64 -34 56 -53 -4 -11 -54 -13 -257 -12 -238 1
-252 2 -256 20 -4 25 25 45 69 45 67 0 70 11 72 232 l1 195 -40 59 c-21 33
-42 66 -47 74 -8 18 -22 40 -59 97 -15 24 -27 45 -27 48 0 3 -20 37 -45 75
-25 38 -45 73 -45 78 0 5 -13 28 -30 50 -16 23 -30 46 -30 50 0 21 -49 51 -93
57 -49 8 -64 22 -53 50 5 13 40 15 258 13 l253 -3 0 -25z m2353 8 c3 -13 -10
-21 -51 -33 -97 -28 -89 15 -87 -461 2 -230 3 -450 4 -489 l1 -70 190 0 189 0
7 30 c11 44 39 119 48 125 4 3 13 26 20 52 14 51 33 74 51 63 13 -8 3 -314
-10 -329 -5 -4 -199 -8 -432 -8 -411 1 -423 1 -426 20 -3 21 39 42 84 42 13 0
27 8 32 18 6 9 12 223 16 475 7 517 6 526 -56 528 -18 1 -41 0 -51 0 -19 -2
-32 21 -24 43 5 11 50 13 249 12 220 -1 243 -3 246 -18z m-5603 -238 c-5 -8
-11 -8 -17 -2 -6 6 -7 16 -3 22 5 8 11 8 17 2 6 -6 7 -16 3 -22z m2873 -1001
c53 -18 58 -89 10 -119 -44 -26 -70 -25 -102 5 -29 26 -31 40 -15 82 17 45 46
53 107 32z m789 5 c13 -4 33 -22 45 -42 l22 -35 -39 -34 c-47 -40 -80 -42
-117 -6 -36 34 -35 57 1 94 30 29 47 34 88 23z m363 -231 c2 -2 3 -22 1 -43
-1 -22 1 -40 6 -40 4 1 24 14 43 30 37 32 67 37 121 19 76 -26 98 -75 79 -183
-6 -39 -18 -92 -26 -117 -7 -26 -17 -78 -20 -116 -7 -76 3 -107 36 -118 26 -8
79 24 86 52 4 13 10 23 14 23 17 0 50 88 50 133 0 26 7 64 15 84 8 19 15 44
15 54 0 26 45 95 84 131 35 32 122 68 164 68 45 0 111 -24 142 -52 27 -23 30
-32 30 -85 l0 -59 -66 -62 c-36 -34 -74 -62 -84 -62 -10 0 -23 -7 -30 -15 -7
-8 -18 -15 -25 -15 -7 0 -33 -9 -59 -20 -43 -19 -46 -24 -46 -57 0 -21 9 -50
21 -68 23 -33 87 -65 129 -65 33 1 97 30 138 65 38 32 82 112 82 150 0 18 5
25 20 25 23 0 26 -24 10 -81 -26 -93 -101 -162 -217 -198 -80 -25 -85 -25
-143 -4 -66 24 -121 63 -141 101 -9 19 -20 36 -22 39 -3 2 -20 -17 -38 -44
-37 -55 -56 -70 -116 -97 -40 -17 -45 -17 -68 -2 -13 9 -30 16 -38 16 -21 0
-53 41 -67 84 -13 41 -8 81 27 208 19 69 23 222 7 238 -15 15 -130 -95 -145
-139 -6 -17 -15 -31 -19 -31 -5 0 -16 -35 -25 -77 -9 -43 -21 -96 -26 -118 -6
-22 -14 -66 -18 -98 -9 -72 -26 -90 -86 -89 -58 2 -65 6 -65 43 0 34 -10 37
-35 9 -18 -20 -97 -60 -117 -60 -6 0 -34 14 -63 32 -48 28 -55 38 -71 86 -15
49 -15 66 -5 151 7 53 16 131 21 174 5 42 14 86 20 97 5 10 10 27 10 38 0 21
39 32 110 32 68 0 69 -1 26 -135 -9 -27 -16 -61 -16 -75 0 -14 -7 -35 -15 -47
-9 -12 -15 -35 -15 -50 1 -15 -1 -67 -5 -115 -5 -85 -5 -87 21 -107 27 -21 27
-21 58 -2 29 18 57 55 72 91 3 8 12 27 20 42 8 14 14 43 14 64 0 20 7 60 15
88 8 28 24 93 35 144 23 104 41 139 73 145 23 5 109 -3 117 -10z m-705 -33
c22 -11 45 -19 51 -20 19 0 54 -59 54 -90 0 -20 -9 -40 -25 -56 -21 -21 -33
-25 -73 -22 -43 3 -47 5 -50 31 -2 19 1 27 12 27 8 0 18 -5 21 -10 12 -19 65
19 65 48 0 20 -62 52 -103 52 -34 0 -40 -4 -53 -36 -22 -53 -10 -85 57 -156
32 -34 59 -65 59 -69 0 -4 7 -9 15 -13 8 -3 15 -14 15 -24 0 -11 7 -25 15 -32
10 -9 15 -32 15 -75 0 -57 -3 -65 -34 -97 -81 -83 -282 -79 -362 7 -25 27 -54
33 -54 12 0 -41 -110 -89 -156 -69 -13 7 -36 12 -49 12 -24 0 -65 52 -65 83 0
26 -19 30 -29 5 -30 -76 -126 -121 -211 -98 -30 8 -47 21 -65 50 -30 47 -39
49 -57 13 -33 -67 -156 -91 -232 -44 -31 20 -36 28 -36 62 0 21 -4 39 -8 39
-4 0 -25 -18 -46 -39 -49 -50 -123 -82 -202 -89 -129 -10 -230 61 -264 187
-13 49 4 193 26 226 8 11 14 25 14 32 0 41 91 128 159 151 82 29 199 2 236
-54 16 -25 17 -33 6 -73 -19 -70 -44 -91 -108 -91 -30 0 -53 5 -53 10 0 6 13
24 30 40 17 16 30 33 30 38 0 5 7 15 15 22 19 16 19 59 0 66 -31 12 -112 -57
-159 -136 -56 -94 -75 -225 -42 -289 9 -16 32 -42 51 -57 31 -23 42 -26 85
-21 62 8 101 28 154 81 40 39 44 49 59 133 10 50 17 114 17 142 0 28 6 68 14
88 8 21 17 50 20 66 4 18 13 27 26 27 10 0 22 5 25 10 8 13 71 13 96 0 20 -11
26 -45 10 -54 -5 -3 -11 -23 -14 -43 -2 -21 -9 -51 -15 -68 -32 -91 -42 -149
-42 -247 0 -101 1 -105 25 -118 21 -11 29 -11 60 6 19 10 35 24 35 30 0 6 14
30 30 52 25 35 30 51 30 100 0 32 7 81 15 108 8 27 15 69 15 94 0 46 19 114
36 129 5 5 37 12 71 16 75 8 84 -2 64 -74 -62 -224 -82 -366 -58 -424 29 -68
71 -59 132 28 27 40 38 69 46 119 5 36 14 96 20 134 6 37 13 81 15 97 3 17 7
45 10 62 7 46 49 67 116 58 57 -8 68 -25 44 -65 -9 -16 -16 -41 -16 -57 0 -15
-6 -48 -14 -73 -50 -157 -61 -286 -27 -327 28 -34 55 -28 101 19 34 35 40 49
40 83 0 56 22 98 64 120 34 18 36 18 71 -1 45 -24 51 -32 28 -41 -32 -11 -53
-35 -63 -74 -26 -97 71 -172 159 -121 30 16 31 20 31 83 l0 66 -83 86 c-90 92
-109 130 -100 197 6 45 34 71 108 102 53 22 101 22 150 -2z"/>
<path d="M2190 4173 c-36 -9 -69 -21 -75 -28 -5 -7 -26 -24 -45 -38 -19 -14
-43 -43 -54 -64 -10 -21 -25 -50 -32 -65 -8 -14 -14 -36 -14 -48 0 -11 -7 -35
-16 -52 -25 -48 -25 -391 0 -473 26 -85 47 -134 71 -163 77 -96 142 -132 235
-132 96 0 157 24 212 83 26 28 52 62 59 76 6 14 18 38 25 53 8 14 14 37 14 51
0 13 7 44 15 67 16 44 21 227 9 290 l-7 32 -66 -4 -66 -3 -3 65 c-3 51 2 82
24 146 l28 81 -22 31 c-36 50 -101 83 -207 106 -11 2 -49 -3 -85 -11z"/>
<path d="M4434 3883 c-3 -10 -13 -36 -21 -58 -15 -39 -24 -62 -57 -138 -9 -21
-16 -45 -16 -54 0 -9 -7 -24 -16 -34 -9 -10 -14 -25 -11 -33 5 -11 29 -13 129
-11 68 1 126 3 131 4 13 2 7 29 -8 35 -8 3 -15 16 -15 30 0 13 -7 38 -15 55
-8 17 -22 45 -30 62 -8 17 -15 40 -15 52 0 12 -7 31 -15 41 -8 11 -15 28 -15
37 0 25 -19 34 -26 12z"/>
<path d="M950 4140 c-18 -18 -20 -33 -20 -158 0 -75 0 -148 0 -162 1 -14 2
-50 3 -80 l2 -55 86 -3 c79 -3 89 -1 128 24 22 15 41 33 41 40 0 7 6 17 13 21
20 13 47 104 47 158 0 52 -22 129 -44 155 -7 8 -16 23 -19 33 -4 9 -14 17 -24
17 -10 0 -27 7 -37 15 -13 10 -44 15 -88 15 -55 0 -72 -4 -88 -20z"/>
<path d="M5518 4168 c9 -9 15 -9 24 0 9 9 7 12 -12 12 -19 0 -21 -3 -12 -12z"/>
<path d="M4848 2634 c-25 -14 -77 -72 -91 -104 -4 -8 -18 -35 -32 -59 -29 -51
-32 -81 -9 -81 31 0 164 117 164 144 0 7 7 19 15 26 9 7 15 29 15 51 0 43 -13
48 -62 23z"/>
<path d="M1400 4890 c0 -5 7 -10 15 -10 8 0 15 5 15 10 0 6 -7 10 -15 10 -8 0
-15 -4 -15 -10z"/>
<path d="M825 4620 c-3 -5 3 -10 14 -10 12 0 21 5 21 10 0 6 -6 10 -14 10 -8
0 -18 -4 -21 -10z"/>
<path d="M6660 2325 c0 -8 5 -15 10 -15 6 0 10 7 10 15 0 8 -4 15 -10 15 -5 0
-10 -7 -10 -15z"/>
<path d="M6680 2280 c0 -13 7 -20 20 -20 13 0 20 7 20 20 0 13 -7 20 -20 20
-13 0 -20 -7 -20 -20z"/>
<path d="M0 2209 l0 -65 91 -89 c50 -50 101 -100 114 -112 12 -13 26 -23 31
-23 5 0 31 -21 57 -45 26 -25 51 -45 55 -45 5 0 23 -16 42 -35 19 -19 41 -35
48 -35 6 0 12 -4 12 -10 0 -5 6 -10 14 -10 8 0 21 -6 28 -12 16 -15 45 -34 73
-48 11 -6 34 -19 50 -29 17 -11 55 -32 85 -48 30 -15 83 -45 118 -65 34 -21
66 -38 71 -38 5 0 14 -7 22 -16 8 -10 22 -14 39 -11 18 4 29 0 37 -12 14 -23
73 -33 80 -14 3 7 21 13 42 14 36 1 36 1 10 12 -14 7 -33 18 -42 26 -10 8 -27
11 -41 7 -18 -4 -25 -1 -29 15 -4 15 -11 19 -26 14 -12 -4 -23 0 -28 10 -11
18 -80 55 -105 55 -10 0 -18 4 -18 9 0 11 -66 51 -85 51 -7 0 -15 7 -19 15 -6
17 -46 21 -46 5 0 -5 -7 -10 -15 -10 -20 0 -19 19 0 26 12 5 13 10 4 20 -6 8
-18 14 -26 14 -7 0 -19 5 -26 10 -40 34 -107 80 -116 80 -6 0 -11 3 -11 8 0 4
-15 15 -32 25 -18 10 -49 32 -69 50 -20 18 -54 46 -75 62 -33 26 -201 183
-225 210 -5 6 -27 30 -49 55 l-40 44 0 -65z"/>
<path d="M6638 2229 c-18 -10 -25 -39 -10 -39 4 0 15 12 25 25 19 26 14 31
-15 14z"/>
<path d="M5660 1540 c-14 -11 -31 -20 -39 -20 -8 0 -45 -10 -82 -22 -73 -25
-91 -48 -36 -48 26 -1 29 -2 15 -11 -10 -5 -18 -14 -18 -19 0 -13 37 -13 45 1
4 5 19 15 33 20 27 10 27 11 7 26 -19 14 -18 14 15 13 59 -3 66 -2 52 12 -19
19 -14 28 13 28 14 0 29 8 35 20 14 27 -6 27 -40 0z"/>
<path d="M1130 1440 c-8 -6 -25 -10 -38 -10 -48 0 13 -36 110 -65 66 -19 112
-16 63 5 -30 12 -30 12 -7 23 12 5 22 13 22 17 0 9 -52 21 -90 21 -14 1 -30 5
-35 9 -6 5 -17 5 -25 0z"/>
<path d="M5405 1436 c-11 -7 -33 -16 -50 -18 -31 -6 -87 -24 -116 -39 -9 -4
-33 -11 -53 -14 -20 -4 -39 -11 -41 -16 -3 -4 -27 -11 -53 -15 -26 -3 -51 -10
-57 -14 -14 -10 -102 -37 -148 -45 -20 -4 -40 -11 -43 -16 -3 -5 -20 -9 -37
-9 -18 0 -48 -5 -67 -11 -42 -13 -133 -35 -215 -52 -33 -7 -67 -17 -74 -22 -8
-4 -42 -11 -75 -14 -60 -6 -61 -7 -61 -36 0 -30 0 -30 64 -33 35 -2 77 2 91 8
15 6 61 15 101 20 41 5 103 16 139 24 36 8 88 20 115 27 28 6 54 15 59 20 6 5
19 9 30 9 21 0 206 60 263 86 17 8 38 14 47 14 8 0 41 14 71 30 30 17 64 30
75 30 22 0 90 38 90 51 0 5 -12 9 -27 9 -24 1 -26 2 -10 11 9 5 22 7 27 4 6
-3 10 1 10 9 0 20 -29 21 -55 2z"/>
<path d="M1395 1351 c-7 -12 12 -24 25 -16 11 7 4 25 -10 25 -5 0 -11 -4 -15
-9z"/>
<path d="M1290 1336 c0 -6 98 -36 117 -35 25 0 -66 38 -94 38 -13 1 -23 -1
-23 -3z"/>
<path d="M4265 1300 c3 -5 13 -10 21 -10 8 0 14 5 14 10 0 6 -9 10 -21 10 -11
0 -17 -4 -14 -10z"/>
<path d="M1446 1270 c7 -7 19 -7 35 -1 23 9 22 10 -10 10 -24 1 -32 -2 -25 -9z"/>
<path d="M1565 1240 c3 -5 13 -10 21 -10 8 0 14 5 14 10 0 6 -9 10 -21 10 -11
0 -17 -4 -14 -10z"/>
</g>
</svg>
